HIERARCHY
ROOT hip
{
  OFFSET 0 0 0
  CHANNELS 6 Xposition Yposition Zposition Zrotation Yrotation Xrotation
  JOINT abdomen
  {
    OFFSET 0 20.6881 -0.73152
    CHANNELS 3 Zrotation Xrotation Yrotation
    JOINT chest
    {
      OFFSET 0 11.7043 -0.48768
      CHANNELS 3 Zrotation Xrotation Yrotation
      JOINT neck
      {
        OFFSET 0 22.1894 -2.19456
        CHANNELS 3 Zrotation Xrotation Yrotation
        JOINT head
        {
          OFFSET -0.24384 7.07133 1.2192
          CHANNELS 3 Zrotation Xrotation Yrotation
          JOINT leftEye
          {
            OFFSET 4.14528 8.04674 8.04672
            CHANNELS 3 Zrotation Xrotation Yrotation
            End Site
            {
              OFFSET 1 0 0
            }
          }
          JOINT rightEye
          {
            OFFSET -3.6576 8.04674 8.04672
            CHANNELS 3 Zrotation Xrotation Yrotation
            End Site
            {
              OFFSET 1 0 0
            }
          }
        }
      }
      JOINT rCollar
      {
        OFFSET -2.68224 19.2634 -4.8768
        CHANNELS 3 Zrotation Xrotation Yrotation
        JOINT rShldr
        {
          OFFSET -8.77824 -1.95073 1.46304
          CHANNELS 3 Zrotation Xrotation Yrotation
          JOINT rForeArm
          {
            OFFSET -28.1742 -1.7115 0.48768
            CHANNELS 3 Zrotation Xrotation Yrotation
            JOINT rHand
            {
              OFFSET -22.5879 0.773209 7.07136
              CHANNELS 3 Zrotation Xrotation Yrotation
              JOINT rThumb1
              {
                OFFSET -1.2192 -0.487915 3.41376
                CHANNELS 3 Zrotation Xrotation Yrotation
                JOINT rThumb2
                {
                  OFFSET -3.37035 -0.52449 3.41376
                  CHANNELS 3 Zrotation Xrotation Yrotation
                  End Site
                  {
                    OFFSET -1.78271 -1.18214 1.43049
                  }
                }
              }
              JOINT rIndex1
              {
                OFFSET -7.75947 0.938293 5.60832
                CHANNELS 3 Zrotation Xrotation Yrotation
                JOINT rIndex2
                {
                  OFFSET -2.54057 -0.884171 1.56538
                  CHANNELS 3 Zrotation Xrotation Yrotation
                  End Site
                  {
                    OFFSET -1.62519 -0.234802 1.16502
                  }
                }
              }
              JOINT rMid1
              {
                OFFSET -8.24714 1.18213 3.41376
                CHANNELS 3 Zrotation Xrotation Yrotation
                JOINT rMid2
                {
                  OFFSET -3.10165 -0.590103 1.0647
                  CHANNELS 3 Zrotation Xrotation Yrotation
                  End Site
                  {
                    OFFSET -2.48547 -0.328903 0.83742
                  }
                }
              }
              JOINT rRing1
              {
                OFFSET -8.82822 0.546677 1.51678
                CHANNELS 3 Zrotation Xrotation Yrotation
                JOINT rRing2
                {
                  OFFSET -2.60934 -0.819778 -0.0198488
                  CHANNELS 3 Zrotation Xrotation Yrotation
                  End Site
                  {
                    OFFSET -2.33842 -0.294052 0.168128
                  }
                }
              }
              JOINT rPinky1
              {
                OFFSET -8.27202 -0.0477905 -0.4584
                CHANNELS 3 Zrotation Xrotation Yrotation
                JOINT rPinky2
                {
                  OFFSET -1.82734 -0.647385 -0.700984
                  CHANNELS 3 Zrotation Xrotation Yrotation
                  End Site
                  {
                    OFFSET -1.69225 -0.51767 -0.607171
                  }
                }
              }
            }
          }
        }
      }
      JOINT lCollar
      {
        OFFSET 2.68224 19.2634 -4.8768
        CHANNELS 3 Zrotation Xrotation Yrotation
        JOINT lShldr
        {
          OFFSET 8.77824 -1.95073 1.46304
          CHANNELS 3 Zrotation Xrotation Yrotation
          JOINT lForeArm
          {
            OFFSET 28.1742 -1.7115 0.48768
            CHANNELS 3 Zrotation Xrotation Yrotation
            JOINT lHand
            {
              OFFSET 22.5879 0.773209 7.07136
              CHANNELS 3 Zrotation Xrotation Yrotation
              JOINT lThumb1
              {
                OFFSET 1.2192 -0.487915 3.41376
                CHANNELS 3 Zrotation Xrotation Yrotation
                JOINT lThumb2
                {
                  OFFSET 3.37035 -0.52449 3.41376
                  CHANNELS 3 Zrotation Xrotation Yrotation
                  End Site
                  {
                    OFFSET 1.78271 -1.18214 1.43049
                  }
                }
              }
              JOINT lIndex1
              {
                OFFSET 7.75947 0.938293 5.60832
                CHANNELS 3 Zrotation Xrotation Yrotation
                JOINT lIndex2
                {
                  OFFSET 2.54057 -0.884171 1.56538
                  CHANNELS 3 Zrotation Xrotation Yrotation
                  End Site
                  {
                    OFFSET 1.62519 -0.234802 1.16502
                  }
                }
              }
              JOINT lMid1
              {
                OFFSET 8.24714 1.18213 3.41376
                CHANNELS 3 Zrotation Xrotation Yrotation
                JOINT lMid2
                {
                  OFFSET 3.10165 -0.590103 1.0647
                  CHANNELS 3 Zrotation Xrotation Yrotation
                  End Site
                  {
                    OFFSET 2.48547 -0.328903 0.83742
                  }
                }
              }
              JOINT lRing1
              {
                OFFSET 8.82822 0.546677 1.51678
                CHANNELS 3 Zrotation Xrotation Yrotation
                JOINT lRing2
                {
                  OFFSET 2.60934 -0.819778 -0.0198488
                  CHANNELS 3 Zrotation Xrotation Yrotation
                  End Site
                  {
                    OFFSET 2.33842 -0.294052 0.168128
                  }
                }
              }
              JOINT lPinky1
              {
                OFFSET 8.27202 -0.0477905 -0.4584
                CHANNELS 3 Zrotation Xrotation Yrotation
                JOINT lPinky2
                {
                  OFFSET 1.82734 -0.647385 -0.700984
                  CHANNELS 3 Zrotation Xrotation Yrotation
                  End Site
                  {
                    OFFSET 1.69225 -0.51767 -0.607171
                  }
                }
              }
            }
          }
        }
      }
    }
  }
  JOINT rButtock
  {
    OFFSET -8.77824 4.35084 1.2192
    CHANNELS 3 Zrotation Xrotation Yrotation
    JOINT rThigh
    {
      OFFSET 0 -1.70687 -2.19456
      CHANNELS 3 Zrotation Xrotation Yrotation
      JOINT rShin
      {
        OFFSET 0 -36.8199 0.73152
        CHANNELS 3 Zrotation Xrotation Yrotation
        JOINT rFoot
        {
          OFFSET 0.73152 -45.1104 -5.12064
          CHANNELS 3 Zrotation Xrotation Yrotation
          End Site
          {
            OFFSET -1.1221 -3.69964 12.103
          }
        }
      }
    }
  }
  JOINT lButtock
  {
    OFFSET 8.77824 4.35084 1.2192
    CHANNELS 3 Zrotation Xrotation Yrotation
    JOINT lThigh
    {
      OFFSET 0 -1.70687 -2.19456
      CHANNELS 3 Zrotation Xrotation Yrotation
      JOINT lShin
      {
        OFFSET 0 -36.8199 0.73152
        CHANNELS 3 Zrotation Xrotation Yrotation
        JOINT lFoot
        {
          OFFSET -0.73152 -45.1104 -5.12064
          CHANNELS 3 Zrotation Xrotation Yrotation
          End Site
          {
            OFFSET 1.1221 -3.69964 12.103
          }
        }
      }
    }
  }
}
MOTION
Frames:	6
Frame Time:	0.00833333
-1.95159 82.4855 48.6233 0.0 0.0 0.0 -4.359 0.00629425 -0.117461 -1.20164 0.0324799 -0.20769 3.13212e-15 -2.38542e-15 1.09332e-15 1.11226e-14 -6.36111e-15 3.03302e-15 -0.0 0.0 0.0 -0.0 0.0 0.0 1.98473e-15 -3.23025e-16 5.96354e-16 4.62139e-14 -6.41702e-15 1.15295e-14 6.90727e-13 -4.59988e-13 1.68569e-13 8.42156e-12 -9.60677e-13 2.0451e-12 1.97731e-11 -3.08711e-12 4.81854e-12 3.41417e-11 -5.33379e-12 8.32192e-12 1.97787e-11 -3.08434e-12 4.80582e-12 7.73091 5.47488 0.417314 1.97741e-11 -3.08732e-12 4.8249e-12 2.90554 0.965183 0.102902 1.97797e-11 -3.08713e-12 4.81854e-12 10.2786 0.731801 0.0259123 1.97699e-11 -3.08395e-12 4.8249e-12 2.22167 -0.733487 -0.20892 2.09048e-15 -3.21666e-16 3.97569e-16 3.96934e-14 -6.03808e-15 9.74045e-15 7.64973e-13 -7.95139e-15 2.00375e-13 8.34069e-12 -1.40667e-12 2.02283e-12 1.97597e-11 -3.07865e-12 4.81854e-12 3.41369e-11 -5.32743e-12 8.31715e-12 1.97564e-11 -3.07679e-12 4.8249e-12 -7.73091 5.47488 -0.417314 1.97588e-11 -3.07828e-12 4.82172e-12 -2.90554 0.965183 -0.102902 1.97566e-11 -3.07818e-12 4.81775e-12 -10.2786 0.731801 -0.0259123 1.97622e-11 -3.07639e-12 4.809e-12 -2.22167 -0.733487 0.20892 -2.03217e-16 0.0 -3.88251e-19 -2.89029 -1.94436 0.0304507 -0.00795761 -2.07874 -0.0649601 -0.420162 4.00218 0.126806 2.03217e-16 0.0 3.88251e-19 -3.72541 -11.2507 0.483802 -0.0143128 14.7726 -0.388793 0.544863 -3.54243 0.0125074
-4.31235 82.2315 46.5697 -8.8037 -4.3839 8.9042 -2.21682 -2.45844 0.246767 -1.60259 -3.48986 -0.235928 -2.2971 2.40211 -3.07018 3.99514 0.0165559 -5.90069 -0.0 0.0 0.0 -0.0 0.0 0.0 5.22724e-14 -1.82493e-14 3.39867e-14 22.8191 1.40894 -2.40362 -3.05226 -1.215 4.93778 0.386902 13.8757 1.74992 5.83686e-10 1.19151e-12 -5.67025e-10 9.82972e-10 3.71013e-11 -1.00036e-09 5.83691e-10 1.19438e-12 -5.67032e-10 7.73091 5.47488 0.417314 5.83686e-10 1.19086e-12 -5.67017e-10 2.90554 0.965183 0.102902 5.83694e-10 1.19229e-12 -5.67024e-10 10.2786 0.731801 0.0259123 5.83683e-10 1.19573e-12 -5.67018e-10 2.22167 -0.733487 -0.20892 5.23341e-14 -1.82486e-14 3.37619e-14 -23.0585 3.97795 2.48234 2.89227 -1.12851 -4.69909 -0.168419 9.13763 -1.22629 -9.75158e-10 -9.10717e-10 -2.36984e-10 -1.68934e-09 -1.5537e-09 -3.80788e-10 -9.7516e-10 -9.10713e-10 -2.36977e-10 -7.73091 5.47488 -0.417314 -9.75158e-10 -9.10716e-10 -2.36984e-10 -2.90554 0.965183 -0.102902 -9.75162e-10 -9.10715e-10 -2.36985e-10 -10.2786 0.731801 -0.0259123 -9.75156e-10 -9.1071e-10 -2.36988e-10 -2.22167 -0.733487 0.20892 -2.03217e-16 0.0 -3.88251e-19 -1.60677 -2.89274 7.3873 0.00543129 -1.90718 0.0390108 -0.834072 1.51158 -6.64473 2.03217e-16 0.0 3.88251e-19 -3.38416 -10.1354 -11.6953 -0.00422925 14.1742 -0.215111 1.67784 -10.5178 14.8809
-4.32862 82.2303 46.5552 -8.8903 -4.3669 8.9695 0.0944462 -5.04831 0.632814 -2.0323 -7.22332 -0.267954 -4.44848 4.92349 -6.33192 8.22235 0.0275008 -12.1345 -0.0 0.0 0.0 -0.0 0.0 0.0 1.07586e-13 -4.04941e-14 7.2749e-14 47.0698 2.88501 -4.95619 -6.0579 -2.47266 10.1742 -0.240882 28.51 3.97888 1.16163e-09 3.30902e-11 -1.19002e-09 1.954e-09 1.29178e-10 -2.09788e-09 1.16163e-09 3.30932e-11 -1.19002e-09 7.73091 5.47488 0.417314 1.16163e-09 3.3089e-11 -1.19001e-09 2.90554 0.965183 0.102902 1.16163e-09 3.30918e-11 -1.19002e-09 10.2786 0.731801 0.0259123 1.16162e-09 3.30956e-11 -1.19002e-09 2.22167 -0.733487 -0.20892 1.07603e-13 -4.04941e-14 7.24974e-14 -47.8156 8.13144 5.14948 5.75135 -2.29738 -9.6759 0.101463 18.84 -2.63893 -2.03922e-09 -1.89838e-09 -5.18432e-10 -3.53307e-09 -3.23911e-09 -8.36193e-10 -2.03922e-09 -1.89837e-09 -5.18424e-10 -7.73091 5.47488 -0.417314 -2.03922e-09 -1.89838e-09 -5.18435e-10 -2.90554 0.965183 -0.102902 -2.03922e-09 -1.89838e-09 -5.18432e-10 -10.2786 0.731801 -0.0259123 -2.03922e-09 -1.89837e-09 -5.1843e-10 -2.22167 -0.733487 0.20892 -2.03217e-16 0.0 -3.88251e-19 0.0200723 -3.80178 15.1746 0.0189485 -1.72384 0.149012 -1.90551 -1.06838 -13.7942 2.03217e-16 0.0 3.88251e-19 -2.49991 -8.5524 -24.4603 0.0105828 13.545 -0.0318292 6.76137 -16.0701 31.4125
-4.33094 82.227 46.553 -8.902 -4.3723 8.9794 2.16215 -7.38691 0.982699 -2.41531 -10.5345 -0.296081 -6.1176 7.12332 -9.27466 11.9955 0.047568 -17.7021 -0.0 0.0 0.0 -0.0 0.0 0.0 1.52848e-13 -5.41019e-14 1.00768e-13 68.8118 4.19705 -7.22816 -8.5353 -3.53687 14.8389 -2.09678 41.4446 6.80606 1.71151e-09 9.74875e-12 -1.71071e-09 2.88063e-09 1.21972e-10 -3.01773e-09 1.71152e-09 9.75185e-12 -1.71071e-09 7.73091 5.47488 0.417314 1.71151e-09 9.74724e-12 -1.7107e-09 2.90554 0.965183 0.102902 1.71152e-09 9.75111e-12 -1.71071e-09 10.2786 0.731801 0.0259123 1.71151e-09 9.75508e-12 -1.71071e-09 2.22167 -0.733487 -0.20892 1.52821e-13 -5.41025e-14 1.00491e-13 -70.2253 11.8433 7.5916 8.12694 -3.29458 -14.1183 0.792761 27.3594 -4.09036 -2.96499e-09 -2.72599e-09 -7.20591e-10 -5.13629e-09 -4.65044e-09 -1.159e-09 -2.96499e-09 -2.72599e-09 -7.20582e-10 -7.73091 5.47488 -0.417314 -2.96499e-09 -2.72599e-09 -7.20596e-10 -2.90554 0.965183 -0.102902 -2.965e-09 -2.72599e-09 -7.20591e-10 -10.2786 0.731801 -0.0259123 -2.96499e-09 -2.72598e-09 -7.20583e-10 -2.22167 -0.733487 0.20892 -2.03217e-16 0.0 -3.88251e-19 1.6685 -4.50491 22.1446 0.0303404 -1.56402 0.246894 -3.39542 -3.22764 -20.2137 2.03217e-16 0.0 3.88251e-19 -1.23239 -6.94144 -35.782 0.0271055 12.9772 0.129505 13.9291 -18.113 46.7945
-4.33856 82.2281 46.5608 -8.9385 -4.3746 8.9444 3.55533 -9.09834 1.23518 -2.67317 -12.7899 -0.311398 -7.12934 8.59848 -11.3583 14.6321 0.0906786 -21.6038 -0.0 0.0 0.0 -0.0 0.0 0.0 1.72981e-13 -4.61177e-14 1.01927e-13 84.0325 5.12752 -8.78231 -10.1322 -4.22206 18.0496 -4.5827 50.2937 9.74389 2.19126e-09 -1.51693e-10 -1.97563e-09 3.6963e-09 -1.3344e-10 -3.49342e-09 2.19127e-09 -1.5169e-10 -1.97562e-09 7.73091 5.47488 0.417314 2.19126e-09 -1.51694e-10 -1.97562e-09 2.90554 0.965183 0.102902 2.19127e-09 -1.5169e-10 -1.97562e-09 10.2786 0.731801 0.0259123 2.19126e-09 -1.51687e-10 -1.97562e-09 2.22167 -0.733487 -0.20892 1.72916e-13 -4.61178e-14 1.01629e-13 -86.0301 14.5364 9.33773 9.68098 -3.94975 -17.2046 1.54929 32.974 -5.23137 -3.54505e-09 -3.15348e-09 -7.24527e-10 -6.13823e-09 -5.37658e-09 -1.1503e-09 -3.54505e-09 -3.15347e-09 -7.24518e-10 -7.73091 5.47488 -0.417314 -3.54505e-09 -3.15348e-09 -7.24534e-10 -2.90554 0.965183 -0.102902 -3.54506e-09 -3.15348e-09 -7.24527e-10 -10.2786 0.731801 -0.0259123 -3.54505e-09 -3.15347e-09 -7.24518e-10 -2.22167 -0.733487 0.20892 -2.03217e-16 0.0 -3.88251e-19 2.89124 -4.93694 27.0375 0.0377745 -1.46302 0.314521 -4.72177 -4.60661 -24.7521 2.03217e-16 0.0 3.88251e-19 -0.11465 -5.79063 -43.689 0.040082 12.5629 0.237841 19.6067 -17.3814 57.4578
-4.34272 82.2182 46.5866 -8.8299 -4.3423 9.0075 3.9526 -9.962 1.34795 -2.75027 -13.55 -0.305517 -7.45843 9.10389 -12.1998 15.6748 0.194699 -23.1818 -0.0 0.0 0.0 -0.0 0.0 0.0 1.47358e-13 -3.99112e-15 5.51053e-14 90.0148 5.55426 -9.30974 -10.6768 -4.44391 19.1949 -5.93215 53.5849 11.2145 2.62919e-09 -6.25256e-10 -1.7799e-09 4.45763e-09 -9.4227e-10 -3.17283e-09 2.62919e-09 -6.25251e-10 -1.7799e-09 7.73091 5.47488 0.417314 2.62918e-09 -6.25255e-10 -1.77989e-09 2.90554 0.965183 0.102902 2.62919e-09 -6.25252e-10 -1.7799e-09 10.2786 0.731801 0.0259123 2.62918e-09 -6.2525e-10 -1.77989e-09 2.22167 -0.733487 -0.20892 1.47257e-13 -3.98925e-15 5.479e-14 -92.246 15.9212 10.0101 10.2467 -4.18362 -18.3712 1.82462 34.4396 -5.57359 -3.58881e-09 -2.88903e-09 -3.26616e-10 -6.20534e-09 -4.91546e-09 -4.64608e-10 -3.58881e-09 -2.88903e-09 -3.26604e-10 -7.73091 5.47488 -0.417314 -3.5888e-09 -2.88903e-09 -3.26621e-10 -2.90554 0.965183 -0.102902 -3.58881e-09 -2.88903e-09 -3.26616e-10 -10.2786 0.731801 -0.0259123 -3.5888e-09 -2.88902e-09 -3.26608e-10 -2.22167 -0.733487 0.20892 -2.03217e-16 0.0 -3.88251e-19 3.31172 -5.14809 29.0164 0.0402189 -1.4473 0.339711 -5.31098 -5.11034 -26.6178 2.03217e-16 0.0 3.88251e-19 0.276163 -5.38677 -46.894 0.0444336 12.3594 0.271689 21.5923 -16.3592 61.6148
